<svg width="377" height="180" viewBox="0 0 377 180" fill="none" xmlns="http://www.w3.org/2000/svg">
<g clip-path="url(#clip0_1_125)">
<path d="M188.182 28.7642C184.565 28.7642 181.125 30.325 178.729 33.0444L171.102 41.5323H195.857L196.685 40.6715C188.35 48.556 177.315 52.9569 165.853 52.9569H140.278L156.353 69.08H172.468C183.721 69.08 194.563 64.8481 202.858 57.213L233.746 28.7722H188.166L188.182 28.7642Z" fill="white"/>
<path d="M175.41 -0.119141C172.428 -0.119141 169.559 1.06354 167.445 3.17146L128.93 41.5403L140.295 52.9408L177.38 16.004H242.122L261.54 -0.119141H175.41Z" fill="white"/>
<path d="M58.799 119.108C64.1547 119.108 68.491 114.743 68.491 109.357V97.3965H35.3377V119.1V131.992H42.2305V119.1H50.4905L60.9834 131.951L69.4376 131.992L58.791 119.1L58.799 119.108ZM42.2305 112.176V104.329H61.6144V109.034C61.6144 110.767 60.2148 112.176 58.4916 112.176H42.2386H42.2305Z" fill="white"/>
<path d="M329.794 119.108C335.15 119.108 339.486 114.743 339.486 109.357V97.3965H306.333V119.1V131.992H313.226V119.1H321.486L331.978 131.951L340.433 131.992L329.786 119.1L329.794 119.108ZM313.226 112.176V104.329H332.61V109.034C332.61 110.767 331.21 112.176 329.487 112.176H313.234H313.226Z" fill="white"/>
<path d="M377 97.4045H343.847V132H361.758C370.172 132 377 125.141 377 116.678V97.4045ZM350.731 125.068V104.328H370.115V116.792C370.115 121.367 366.426 125.068 361.88 125.068H350.731Z" fill="white"/>
<path d="M258.172 97.4045V121.561C258.172 123.497 256.611 125.076 254.677 125.076H237.542V97.4045H230.65V132H254.645C260.397 132 265.057 127.311 265.057 121.529V97.4045H258.164H258.172Z" fill="white"/>
<path d="M147.321 97.24V132.062H140.623L119.604 107.954V132.062H112.712V97.24H119.604L140.445 121.875V97.24H147.321Z" fill="white"/>
<path d="M303.647 132H296.681L284.967 105.3L273.252 132H266.279L281.48 97.356H288.446L303.647 132Z" fill="white"/>
<path d="M109.896 132H102.923L91.2081 105.292L79.4936 132H72.5361L87.7294 97.356H94.695L109.896 132Z" fill="white"/>
<path d="M0 97.4045V104.328H12.1999V132H19.0927V104.328H30.6535V97.4045H0Z" fill="white"/>
<path d="M184.994 104.164V97.24H152.529V117.996H178.053V124.903H152.529V131.835H184.938V111.072H159.413V104.164H184.994Z" fill="white"/>
<path d="M207.628 111.193V118.198H218.444V121.502C218.444 123.381 216.931 124.903 215.063 124.903H197.224V104.164H225.361V97.24H190.331V131.835H215.249C220.823 131.835 225.337 127.3 225.345 121.696L225.361 111.201H207.636L207.628 111.193Z" fill="white"/>
</g>
<path d="M86.4883 160.625V162.734H78.0977V164.492C81.8945 164.75 84.1211 166.062 84.1445 168.266C84.1211 170.703 81.3789 172.062 76.8086 172.062C72.1914 172.062 69.4258 170.703 69.4258 168.266C69.4258 166.062 71.6758 164.738 75.5195 164.492V162.734H67.1758V160.625H86.4883ZM76.8086 166.461C73.7148 166.484 72.0508 167.094 72.0742 168.266C72.0508 169.438 73.7148 170.07 76.8086 170.07C79.832 170.07 81.5195 169.438 81.543 168.266C81.5195 167.094 79.832 166.484 76.8086 166.461ZM84.7539 151.836V153.922H78.6602C79.0703 155.668 81.6016 157.238 85.5742 157.602L84.6602 159.664C80.8164 159.277 77.957 157.742 76.8086 155.586C75.6602 157.73 72.8477 159.277 69.0039 159.664L68.1133 157.602C72.0039 157.238 74.5352 155.645 74.9805 153.922H68.9336V151.836H84.7539ZM94.9117 154.719C94.9117 157.32 96.5992 159.758 99.9039 160.766L98.6617 162.805C96.2828 162.066 94.5953 160.555 93.6695 158.633C92.732 160.859 90.9391 162.629 88.3961 163.484L87.0836 161.422C90.5055 160.297 92.2867 157.555 92.2867 154.742V154.484H87.8102V152.375H99.318V154.484H94.9117V154.719ZM104.029 150.898V155.984H106.982V158.117H104.029V163.531H101.427V150.898H104.029ZM97.1383 164C101.521 164 104.216 165.477 104.24 168.008C104.216 170.562 101.521 172.062 97.1383 172.062C92.7086 172.062 89.9664 170.562 89.9664 168.008C89.9664 165.477 92.7086 164 97.1383 164ZM97.1383 166.039C94.232 166.039 92.568 166.719 92.568 168.008C92.568 169.32 94.232 170.023 97.1383 170.023C100.045 170.023 101.662 169.32 101.662 168.008C101.662 166.719 100.045 166.039 97.1383 166.039ZM125.085 150.898V172.109H122.46V150.898H125.085ZM111.187 152.633V157.93H116.32V152.633H118.898V167.117H108.585V152.633H111.187ZM111.187 164.984H116.32V159.969H111.187V164.984ZM152.01 161.188V163.227H143.62V164.938C147.44 165.172 149.643 166.402 149.666 168.5C149.643 170.797 146.948 172.062 142.33 172.062C137.69 172.062 134.948 170.797 134.948 168.5C134.948 166.402 137.186 165.172 141.041 164.938V163.227H132.698V161.188H152.01ZM143.62 150.945V152.867H150.112V154.93H143.83C144.205 156.652 146.702 158.059 151.049 158.375L150.252 160.344C146.455 160.051 143.655 158.867 142.33 157.039C141.006 158.867 138.182 160.051 134.409 160.344L133.612 158.375C137.936 158.059 140.432 156.652 140.83 154.93H134.596V152.867H141.041V150.945H143.62ZM142.33 166.859C139.213 166.859 137.573 167.398 137.596 168.5C137.573 169.578 139.213 170.117 142.33 170.117C145.377 170.117 147.041 169.578 147.065 168.5C147.041 167.398 145.377 166.859 142.33 166.859ZM169.879 156.055V158.117H163.785V159.734H172.152V161.797H152.84V159.734H161.184V158.117H155.301V151.648H169.691V153.758H157.902V156.055H169.879ZM169.738 163.156V168.312H157.691V169.883H170.324V171.875H155.137V166.484H167.184V165.078H155.113V163.156H169.738ZM187.898 163.977C192.28 163.977 194.976 165.453 194.999 168.008C194.976 170.586 192.28 172.086 187.898 172.086C183.468 172.086 180.726 170.586 180.726 168.008C180.726 165.453 183.468 163.977 187.898 163.977ZM187.898 166.016C184.991 166.016 183.327 166.695 183.327 168.008C183.327 169.32 184.991 170.023 187.898 170.023C190.804 170.023 192.421 169.32 192.421 168.008C192.421 166.695 190.804 166.016 187.898 166.016ZM194.788 150.898V155.961H197.741V158.141H194.788V163.461H192.187V150.898H194.788ZM181.382 152.234V155.094H186.327V152.234H188.905V162.125H178.804V152.234H181.382ZM181.382 160.062H186.327V157.133H181.382V160.062ZM206.212 156.922C206.212 160.391 208.251 164.047 211.673 165.477L210.243 167.539C207.735 166.461 205.907 164.234 204.946 161.539C203.962 164.445 202.11 166.883 199.626 168.055L198.126 166.016C201.477 164.469 203.563 160.531 203.563 156.922V155.141H198.899V152.984H210.852V155.141H206.212V156.922ZM215.845 150.898V172.086H213.22V150.898H215.845ZM226.48 170H223.223L229.199 153.031H232.949L238.949 170H235.691L234.285 165.805H227.887L226.48 170ZM228.707 163.344H233.465L231.145 156.5H231.004L228.707 163.344ZM243.412 153.031V170H240.365V153.031H243.412ZM258.22 155.984C258.196 159.875 260.235 163.766 263.68 165.242L262.134 167.328C259.696 166.203 257.903 163.953 256.93 161.188C255.958 164.176 254.141 166.613 251.563 167.82L249.97 165.641C253.509 164.117 255.571 160.062 255.571 155.984V152.609H258.22V155.984ZM267.829 150.898V172.109H265.204V150.898H267.829ZM281.291 153.805C281.291 157.086 284.502 160.367 288.932 161.141L287.76 163.32C284.209 162.57 281.303 160.426 279.932 157.578C278.526 160.402 275.62 162.559 272.08 163.32L270.932 161.141C275.315 160.344 278.502 157.062 278.526 153.805V152.234H281.291V153.805ZM289.705 167.234V169.391H270.346V167.234H289.705ZM299.441 152.211V154.32H293.887V156.312H298.645V158.328H293.887V160.508C296.43 160.484 298.176 160.391 300.238 160.016L300.52 162.055C298.082 162.5 296.066 162.594 292.785 162.594H291.379V152.211H299.441ZM308.605 150.898V163.578H306.121V150.898H308.605ZM304.434 151.25V163.414H301.949V158.188H299.559V156.078H301.949V151.25H304.434ZM308.605 164.469V171.828H294.309V164.469H308.605ZM296.91 166.531V169.719H306.027V166.531H296.91Z" fill="white"/>
<defs>
<clipPath id="clip0_1_125">
<rect width="377" height="132" fill="white"/>
</clipPath>
</defs>
</svg>
